Coordinates
version=1
nRows=12
nColumns=63
inDegrees=yes

Units are S.I. units (second, meters, Newtons, ...)
If the header above contains a line with 'inDegrees', this indicates whether rotational values are in degrees (yes) or radians (no).

endheader
time	pelvis_tilt	pelvis_list	pelvis_rotation	pelvis_tx	pelvis_ty	pelvis_tz	hip_flexion_r	hip_adduction_r	hip_rotation_r	knee_angle_r	knee_angle_r_beta	ankle_angle_r	subtalar_angle_r	mtp_angle_r	hip_flexion_l	hip_adduction_l	hip_rotation_l	knee_angle_l	knee_angle_l_beta	ankle_angle_l	subtalar_angle_l	mtp_angle_l	L5_S1_Flex_Ext	L5_S1_Lat_Bending	L5_S1_axial_rotation	L4_L5_Flex_Ext	L4_L5_Lat_Bending	L4_L5_axial_rotation	L3_L4_Flex_Ext	L3_L4_Lat_Bending	L3_L4_axial_rotation	L2_L3_Flex_Ext	L2_L3_Lat_Bending	L2_L3_axial_rotation	L1_L2_Flex_Ext	L1_L2_Lat_Bending	L1_L2_axial_rotation	L1_T12_Flex_Ext	L1_T12_Lat_Bending	L1_T12_axial_rotation	Abs_r3	Abs_r2	Abs_r1	Abs_t1	Abs_t2	neck_flexion	neck_bending	neck_rotation	arm_flex_r	arm_add_r	arm_rot_r	elbow_flex_r	pro_sup_r	wrist_flex_r	wrist_dev_r	arm_flex_l	arm_add_l	arm_rot_l	elbow_flex_l	pro_sup_l	wrist_flex_l	wrist_dev_l
1.457627	-4.113293	-9.857414	76.933884	0.243742	0.839598	0.732276	13.958781	-0.467068	2.440501	13.997319	0.244299	23.575959	-9.626709	0.000000	6.351976	-0.745204	-9.420598	4.929917	0.086043	26.185969	12.133731	0.000000	-0.090258	0.720378	-0.283873	-0.167617	0.958103	-0.301615	-0.148284	1.751527	-0.301615	-0.103155	1.751527	-0.248389	-0.083813	1.468995	-0.230647	-0.051573	1.115866	-0.212905	-0.644701	8.149061	-1.578819	0.000000	0.000000	24.215521	-8.673886	-17.111131	1.726599	-18.992793	14.238786	40.371256	88.256108	-9.948978	5.395115	73.912120	-20.046672	10.261768	147.515570	87.542096	-34.022151	-11.721617
1.474576	-4.666826	-9.946063	76.302749	0.245610	0.838731	0.733855	14.433155	-0.742371	3.278886	14.385093	0.251067	23.620032	-10.101647	0.000000	6.854229	-0.407539	-9.820251	5.330455	0.093034	26.226736	11.571505	0.000000	-0.100781	0.674390	-0.232516	-0.187160	0.896939	-0.247048	-0.165573	1.639712	-0.247048	-0.115182	1.639712	-0.203451	-0.093585	1.375216	-0.188919	-0.057586	1.044630	-0.174387	-0.719868	7.628836	-1.293182	0.000000	0.000000	23.859212	-9.068730	-17.819183	1.677603	-18.700129	13.943799	40.390347	88.241413	-9.709451	4.966994	74.011531	-19.300817	12.019127	147.102476	87.542164	-37.586209	-11.135966
1.491525	-5.215533	-10.051608	75.658705	0.247514	0.837747	0.735394	14.938516	-0.992864	4.133372	14.788614	0.258110	23.695531	-10.575990	0.000000	7.428549	-0.100053	-10.386321	5.844820	0.102011	26.356793	11.164300	0.000000	-0.110442	0.630928	-0.220706	-0.205102	0.839134	-0.234500	-0.181446	1.534038	-0.234500	-0.126225	1.534038	-0.193118	-0.102557	1.286588	-0.179323	-0.063107	0.977307	-0.165529	-0.788878	7.137183	-1.227500	0.000000	0.000000	23.632856	-9.435656	-18.380561	1.806222	-18.470467	14.065868	40.371529	88.225846	-9.506697	4.537593	74.090439	-18.861379	13.793092	146.753132	87.532840	-41.546893	-10.294689
1.508475	-5.747310	-10.186600	75.016059	0.249450	0.836626	0.736850	15.483560	-1.204861	5.009894	15.203288	0.265347	23.822357	-11.060095	0.000000	8.081846	0.173033	-10.884765	6.476818	0.113042	26.535931	10.621531	0.000000	-0.116816	0.592112	-0.251000	-0.216939	0.787509	-0.266688	-0.191917	1.439661	-0.266688	-0.133509	1.439661	-0.219625	-0.108475	1.207435	-0.203938	-0.066749	0.917181	-0.188250	-0.834403	6.698089	-1.395987	0.000000	0.000000	23.549471	-9.720550	-18.724024	2.101205	-18.294838	14.561394	40.317772	88.220045	-9.294769	4.161578	74.158292	-18.687393	15.341464	146.498724	87.317407	-45.300819	-9.029085
1.525424	-6.245115	-10.335163	74.400711	0.251365	0.835386	0.738210	16.039520	-1.367581	5.882912	15.606111	0.272378	24.021454	-11.526681	0.000000	8.790785	0.402607	-11.249321	7.219239	0.125999	26.752068	9.907461	0.000000	-0.122297	0.559852	-0.325516	-0.227117	0.744603	-0.345860	-0.200921	1.361223	-0.345860	-0.139773	1.361223	-0.284826	-0.113565	1.141649	-0.264481	-0.069880	0.867210	-0.244137	-0.873554	6.333153	-1.810420	0.000000	0.000000	23.615365	-9.911709	-18.810822	2.579206	-18.180747	15.469841	40.215758	88.221122	-9.099423	3.870463	74.213593	-18.737574	16.582828	146.359297	86.830447	-48.654379	-7.310073
1.542373	-6.695273	-10.512707	73.784956	0.253252	0.834039	0.739474	16.624286	-1.469189	6.693108	16.000431	0.279260	24.310646	-11.874411	0.000000	9.560249	0.573909	-11.547708	8.069964	0.140847	27.002397	9.075528	0.000000	-0.124983	0.536772	-0.433099	-0.232107	0.713906	-0.460168	-0.205335	1.305107	-0.460168	-0.142844	1.305107	-0.378962	-0.116060	1.094585	-0.351893	-0.071416	0.831459	-0.324824	-0.892744	6.072068	-2.408767	0.000000	0.000000	23.828141	-9.964998	-18.614524	3.186680	-18.119346	16.693215	40.080383	88.226612	-8.983355	3.568386	74.250938	-19.049270	17.853817	146.346068	86.171805	-52.549141	-5.686010
1.559322	-7.082763	-10.712592	73.190215	0.255089	0.832597	0.740634	17.223042	-1.500771	7.420667	16.378294	0.285855	24.695932	-12.105241	0.000000	10.372549	0.679150	-11.708363	9.014265	0.157329	27.274516	8.059369	0.000000	-0.126536	0.523633	-0.574902	-0.234990	0.696431	-0.610833	-0.207886	1.273160	-0.610833	-0.144618	1.273160	-0.503039	-0.117501	1.067791	-0.467108	-0.072303	0.811107	-0.431176	-0.903832	5.923436	-3.197431	0.000000	0.000000	24.182568	-9.861339	-18.130799	3.902519	-18.086920	18.173498	39.918166	88.235572	-8.976615	3.230831	74.228462	-19.538458	18.842434	146.465217	85.350572	-56.151754	-3.944409
1.576271	-7.394722	-10.940128	72.607207	0.256858	0.831076	0.741684	17.834133	-1.448064	8.056029	16.732175	0.292032	25.166180	-12.204293	0.000000	11.211539	0.704802	-11.746504	10.019510	0.174873	27.564493	6.869355	0.000000	-0.127762	0.522375	-0.745024	-0.237266	0.694759	-0.791588	-0.209899	1.270102	-0.791588	-0.146019	1.270102	-0.651896	-0.118639	1.065227	-0.605332	-0.073003	0.809159	-0.558768	-0.912588	5.909208	-4.143598	0.000000	0.000000	24.662098	-9.624394	-17.347660	4.678435	-18.077696	19.797276	39.776570	88.252315	-9.070710	2.813675	74.063750	-20.128769	19.327250	146.656062	84.469712	-58.825592	-2.382791
1.593220	-7.627351	-11.182579	72.059554	0.258561	0.829510	0.742612	18.439475	-1.318535	8.617921	17.064550	0.297833	25.726725	-12.211102	0.000000	12.058535	0.654961	-11.709672	11.079022	0.193365	27.890038	5.609548	0.000000	-0.129920	0.532128	-0.942572	-0.241274	0.707730	-1.001483	-0.213446	1.293815	-1.001483	-0.148486	1.293815	-0.824751	-0.120644	1.085115	-0.765840	-0.074236	0.824266	-0.706929	-0.928006	6.019536	-5.242303	0.000000	0.000000	25.182109	-9.276506	-16.271030	5.504463	-18.068449	21.516423	39.638219	88.280989	-9.173937	2.316492	73.793416	-20.812612	19.483710	146.954702	83.769778	-61.218843	-0.875527
1.610169	-7.794013	-11.447098	71.504323	0.260226	0.827933	0.743424	19.046110	-1.109780	9.096484	17.368494	0.303137	26.353462	-12.070813	0.000000	12.897977	0.531368	-11.600894	12.135184	0.211799	28.227853	4.229390	0.000000	-0.130461	0.552088	-1.145465	-0.242279	0.734277	-1.217057	-0.214334	1.342346	-1.217057	-0.149104	1.342346	-1.002282	-0.121146	1.125817	-0.930691	-0.074545	0.855184	-0.859099	-0.931870	6.245327	-6.370735	0.000000	0.000000	25.670683	-8.925490	-15.005840	6.324313	-18.096313	23.307686	39.534103	88.310019	-9.425275	1.728687	73.375377	-21.489305	19.249347	147.233623	83.237720	-63.018416	0.072162
1.627119	-7.915325	-11.728749	70.924631	0.261925	0.826359	0.744131	19.653978	-0.839126	9.537118	17.653946	0.308119	27.031961	-11.825293	0.000000	13.714933	0.354010	-11.459191	13.158590	0.229661	28.596679	2.792935	0.000000	-0.129941	0.577924	-1.341390	-0.241313	0.768639	-1.425227	-0.213480	1.405165	-1.425227	-0.148509	1.405165	-1.173716	-0.120663	1.178503	-1.089879	-0.074248	0.895205	-1.006042	-0.928154	6.537596	-7.460408	0.000000	0.000000	26.091503	-8.537704	-13.625269	7.100648	-18.125132	25.006552	39.461517	88.352695	-9.674922	1.102176	72.766369	-22.073465	18.365743	147.489243	82.916282	-63.317233	0.787320
1.644068	-7.987095	-12.004600	70.388496	0.263593	0.824887	0.744740	20.217618	-0.540358	9.855076	17.893878	0.312307	27.706894	-11.479584	0.000000	14.478361	0.145291	-11.242424	14.111123	0.246286	28.999537	1.356985	0.000000	-0.132073	0.607671	-1.532526	-0.245272	0.808202	-1.628309	-0.216982	1.477490	-1.628309	-0.150946	1.477490	-1.340960	-0.122643	1.239162	-1.245177	-0.075466	0.941282	-1.149394	-0.943381	6.874091	-8.523448	0.000000	0.000000	26.394339	-8.153620	-12.225595	7.887390	-18.171887	26.757675	39.332677	88.389338	-9.975043	0.338881	71.983892	-22.532476	16.913824	147.704524	82.792114	-62.282271	1.285631
